<svg id="Layer_1" data-name="Layer 1" xmlns="http://www.w3.org/2000/svg" viewBox="0 0 972.51 274.41"><defs><style>.cls-1{fill:#b7640f;}.cls-2{fill:#ffd520;}</style></defs><title>media_logo</title><path class="cls-1" d="M0,75.48H59.47v118.8q0,13.92,4.47,18.53t17.65,4.61h3.08v58H68.85q-32.52,0-50.69-19T0,203.8Z" transform="translate(0 -2)"/><path class="cls-1" d="M155.42,129.39v146H100.63v-146Z" transform="translate(0 -2)"/><path class="cls-1" d="M317.87,275.43H263.09V193q0-12.6-10.4-12.6T242.43,193v82.47H187.65V194q0-28.58,18.89-48.12t46.29-19.56q31.35,0,50.25,22.71,14.79,17.72,14.79,49.36Z" transform="translate(0 -2)"/><path class="cls-1" d="M404.59,75.48v200H349.8V75.48Zm73.94,53.91-26.81,53.17,39.84,92.87H430.92l-34.28-95.36,24.9-50.68Z" transform="translate(0 -2)"/><path class="cls-1" d="M675.29,159.37H732q18.32,22.71,18.31,47.9,0,29.29-21.46,49.22T676,276.41q-40.72,0-69.15-30.91t-28.41-75.29q0-44.52,28.93-74.12T679.69,66.5q14.79,0,32.81,6V132q-14.06-6.6-25.63-6.59-21,0-34.21,13T639.4,172.26q0,21.24,12.31,33.69T685,218.4q13.34,0,13.33-7.76,0-5.85-8.79-5.86H675.29Z" transform="translate(0 -2)"/><path class="cls-1" d="M869.24,66.5q42.48,0,72.87,30.91t30.4,74q0,43.8-30.62,74.42t-74.41,30.61q-43.5,0-74.27-30.76t-30.76-74.27q0-43.93,31-74.41T869.24,66.5Zm-1.76,58.89q-18.32,0-31.2,13.47a47.37,47.37,0,0,0,.07,65q13,13.48,31.13,13.48A41.62,41.62,0,0,0,898.75,204q12.82-13.41,12.82-32.6t-12.82-32.59A41.58,41.58,0,0,0,867.48,125.39Z" transform="translate(0 -2)"/><path class="cls-2" d="M0,47.48H59.47v118.8q0,13.92,4.47,18.53t17.65,4.61h3.08v58H68.85q-32.52,0-50.69-19T0,175.8Z" transform="translate(0 -2)"/><path class="cls-2" d="M155.42,101.39v146H100.63v-146Z" transform="translate(0 -2)"/><path class="cls-2" d="M317.87,247.43H263.09V165q0-12.6-10.4-12.6T242.43,165v82.47H187.65V166q0-28.58,18.89-48.12t46.29-19.56q31.35,0,50.25,22.71,14.79,17.72,14.79,49.36Z" transform="translate(0 -2)"/><path class="cls-2" d="M404.59,47.48v200H349.8v-200Zm73.94,53.91-26.81,53.17,39.84,92.87H430.92l-34.28-95.36,24.9-50.68Z" transform="translate(0 -2)"/><path class="cls-2" d="M675.29,135.37H732q18.32,22.71,18.31,47.9,0,29.29-21.46,49.22T676,252.41q-40.72,0-69.15-30.91t-28.41-75.29q0-44.52,28.93-74.12T679.69,42.5q14.79,0,32.81,6V108q-14.06-6.6-25.63-6.59-21,0-34.21,13T639.4,148.26q0,21.24,12.31,33.69T685,194.4q13.34,0,13.33-7.76,0-5.85-8.79-5.86H675.29Z" transform="translate(0 -2)"/><path class="cls-2" d="M869.24,42.5q42.48,0,72.87,30.91t30.4,74q0,43.8-30.62,74.42t-74.41,30.61q-43.5,0-74.27-30.76t-30.76-74.27q0-43.93,31-74.41T869.24,42.5Zm-1.76,58.89q-18.32,0-31.2,13.47a45.34,45.34,0,0,0-12.89,32.52,45.2,45.2,0,0,0,13,32.52q13,13.48,31.13,13.48A41.62,41.62,0,0,0,898.75,180q12.82-13.41,12.82-32.6t-12.82-32.59A41.58,41.58,0,0,0,867.48,101.39Z" transform="translate(0 -2)"/><path class="cls-1" d="M134,17.43l4.45,13.68a6.41,6.41,0,0,0,6.1,4.44h14.38a6.41,6.41,0,0,1,3.77,11.6l-11.63,8.46a6.41,6.41,0,0,0-2.33,7.17l4.44,13.68a6.41,6.41,0,0,1-9.87,7.17l-11.64-8.45a6.42,6.42,0,0,0-7.54,0l-11.64,8.45a6.41,6.41,0,0,1-9.87-7.17l4.44-13.68a6.41,6.41,0,0,0-2.33-7.17L93.1,47.15a6.41,6.41,0,0,1,3.77-11.6h14.38a6.41,6.41,0,0,0,6.1-4.44l4.45-13.68A6.41,6.41,0,0,1,134,17.43Z" transform="translate(0 -2)"/><path class="cls-2" d="M134,6.43l4.45,13.68a6.41,6.41,0,0,0,6.1,4.44h14.38a6.41,6.41,0,0,1,3.77,11.6l-11.63,8.46a6.41,6.41,0,0,0-2.33,7.17l4.44,13.68a6.41,6.41,0,0,1-9.87,7.17l-11.64-8.45a6.42,6.42,0,0,0-7.54,0l-11.64,8.45a6.41,6.41,0,0,1-9.87-7.17l4.44-13.68a6.41,6.41,0,0,0-2.33-7.17L93.1,36.15a6.41,6.41,0,0,1,3.77-11.6h14.38a6.41,6.41,0,0,0,6.1-4.44L121.8,6.43A6.41,6.41,0,0,1,134,6.43Z" transform="translate(0 -2)"/></svg>